<?xml version="1.0" standalone="no"?><!DOCTYPE svg PUBLIC "-//W3C//DTD SVG 1.1//EN" "http://www.w3.org/Graphics/SVG/1.1/DTD/svg11.dtd"><svg t="1715249232074" class="icon" viewBox="0 0 1024 1024" version="1.1" xmlns="http://www.w3.org/2000/svg" p-id="10436" xmlns:xlink="http://www.w3.org/1999/xlink" width="200" height="200"><path d="M50.673152 590.181581l71.227187-33.565491 0 138.349975-71.227187 18.831872L50.673152 590.181617 50.673152 590.181581zM142.367334 734.264115l75.315405-17.19255 0 151.449317-75.315427 0L142.367312 734.264153 142.367334 734.264115zM142.367334 322.482688l75.315405-60.578714L217.682739 459.198423l-75.315405 36.839014L142.367334 322.482669 142.367334 322.482688zM142.367334 546.7904l75.315405-34.379981 0 157.99643-75.315405 19.646464L142.367334 546.790364 142.367334 546.7904zM248.795648 238.164275l103.149466-82.684211 0 239.860926-103.149466 49.93833L248.795648 238.164285 248.795648 238.164275zM50.673152 754.730291l71.227187-15.558349L121.900339 868.520903 50.67318 868.520903 50.67318 754.730277 50.673152 754.730291zM248.795648 710.519398l103.149466-22.919987L351.945114 868.520903 248.795622 868.520903 248.795622 710.519356 248.795648 710.519398zM50.673152 395.341005l71.227187-56.485478 0 166.187997-71.227187 34.379981L50.673152 395.341047 50.673152 395.341005zM248.795648 498.49129l103.149466-48.299008 0 185.834452-103.149466 26.193613L248.795648 498.491335 248.795648 498.49129zM973.326848 238.164275l-27.019469 630.356582-16.373586 0-17.193267-590.244045-311.912755-49.93833-2.459136 179.282227 140.814848 18.831872 2.454016-176.008704 44.207616 7.366758-1.634304 174.36928 134.262374 18.012262 0 53.211922-135.082086-16.372941-1.639424 166.182912 136.72151 9.00608 0 36.019355-137.536102-6.547149-1.639424 176.828314-45.027363 0 2.454016-178.467635-142.449152-6.547149-2.454016 171.095757-44.20766 0L547.613484 681.866782l-169.468621-8.18647 0-49.118698 169.468621 12.279706L547.613484 460.018092l-169.468621-18.831872 0-62.21804 169.468621 22.105498L547.613484 220.152049l-162.921267-26.193613-6.547354-33.565491L973.326848 238.164275zM596.734362 465.74551l-1.639424 173.55479 141.62944 9.820672 2.459136-167.002522L596.734362 465.74551zM596.734362 465.74551" p-id="10437"></path></svg>